<svg width="24" height="24" viewBox="0 0 24 24" fill="none" xmlns="http://www.w3.org/2000/svg">
<path fill-rule="evenodd" clip-rule="evenodd" d="M20.5603 4.51738e-06C20.0276 -6.16727e-05 19.5392 -0.000122371 19.1419 0.0561814C18.7044 0.118183 18.2419 0.26406 17.8616 0.664955C17.4813 1.06585 17.3429 1.55328 17.2841 2.01444C17.2306 2.43322 17.2307 2.94802 17.2308 3.50951V20.4905C17.2307 21.052 17.2306 21.5668 17.2841 21.9856C17.3429 22.4467 17.4813 22.9342 17.8616 23.335C18.2419 23.7359 18.7044 23.8818 19.1419 23.9438C19.5392 24.0001 20.0276 24.0001 20.5603 24H20.6704C21.2031 24.0001 21.6916 24.0001 22.0889 23.9438C22.5264 23.8818 22.9888 23.7359 23.3691 23.335C23.7495 22.9342 23.8879 22.4467 23.9467 21.9856C24.0001 21.5668 24.0001 21.052 24 20.4905V3.50953C24.0001 2.94804 24.0001 2.43322 23.9467 2.01444C23.8879 1.55328 23.7495 1.06585 23.3691 0.664955C22.9888 0.26406 22.5264 0.118183 22.0889 0.0561814C21.6916 -0.000122371 21.2031 -6.16727e-05 20.6705 4.51738e-06H20.5603ZM19.1701 2.03918L19.1671 2.04096L19.1654 2.04412C19.1641 2.04663 19.1621 2.05093 19.1596 2.05748C19.1485 2.08573 19.1297 2.14847 19.1137 2.27373C19.0789 2.5471 19.0769 2.92852 19.0769 3.56757V20.4324C19.0769 21.0715 19.0789 21.4529 19.1137 21.7263C19.1297 21.8515 19.1485 21.9143 19.1596 21.9425C19.1621 21.9491 19.1641 21.9534 19.1654 21.9559L19.167 21.9591L19.1701 21.9608C19.1711 21.9614 19.1724 21.9621 19.174 21.9629C19.1763 21.964 19.1791 21.9654 19.1827 21.9669C19.2095 21.9785 19.269 21.9984 19.3879 22.0152C19.6472 22.052 20.0091 22.054 20.6154 22.054C21.2217 22.054 21.5835 22.052 21.8429 22.0152C21.9617 21.9984 22.0212 21.9785 22.048 21.9669C22.0542 21.9642 22.0583 21.9621 22.0607 21.9608L22.0637 21.9591L22.0654 21.9559C22.0666 21.9534 22.0686 21.9491 22.0712 21.9425C22.0822 21.9143 22.101 21.8515 22.117 21.7263C22.1519 21.4529 22.1538 21.0715 22.1538 20.4324V3.56757C22.1538 2.92852 22.1519 2.5471 22.117 2.27373C22.101 2.14847 22.0822 2.08573 22.0712 2.05747C22.0686 2.05093 22.0666 2.04663 22.0654 2.04412L22.0637 2.04096L22.0607 2.03918C22.0583 2.03787 22.0542 2.03577 22.048 2.03308C22.0212 2.02145 21.9617 2.00162 21.8429 1.98477C21.5835 1.94802 21.2217 1.94595 20.6154 1.94595C20.0091 1.94595 19.6472 1.94802 19.3879 1.98477C19.269 2.00162 19.2095 2.02145 19.1827 2.03308C19.1765 2.03577 19.1724 2.03787 19.1701 2.03918Z" fill="#1C274C"/>
<path fill-rule="evenodd" clip-rule="evenodd" d="M11.9449 3.89189H12.0551C12.5878 3.89183 13.0762 3.89177 13.4735 3.94807C13.911 4.01007 14.3734 4.15595 14.7538 4.55684C15.1341 4.95774 15.2725 5.44517 15.3313 5.90633C15.3847 6.32511 15.3847 6.83991 15.3846 7.40139V20.4905C15.3847 21.052 15.3847 21.5668 15.3313 21.9856C15.2725 22.4467 15.1341 22.9341 14.7538 23.335C14.3734 23.7359 13.911 23.8818 13.4735 23.9438C13.0762 24.0001 12.5878 24.0001 12.0552 24H11.9449C11.4123 24.0001 10.9238 24.0001 10.5265 23.9438C10.089 23.8818 9.62657 23.7359 9.24623 23.335C8.8659 22.9341 8.7275 22.4467 8.66868 21.9856C8.61526 21.5668 8.61532 21.052 8.61538 20.4905V7.40141C8.61532 6.83992 8.61526 6.32511 8.66868 5.90633C8.7275 5.44517 8.8659 4.95774 9.24623 4.55684C9.62657 4.15595 10.089 4.01007 10.5265 3.94807C10.9238 3.89177 11.4122 3.89183 11.9449 3.89189ZM10.5517 5.93285L10.5547 5.93107C9.6 8.08864 9.6 19.5243 10.5518 21.9591L10.55 21.9559C10.5487 21.9534 10.5468 21.9491 10.5442 21.9425C10.5332 21.9143 10.5143 21.8515 10.4984 21.7263C10.4635 21.4529 10.4615 21.0715 10.4615 20.4324V7.45946C10.4615 6.82041 10.4635 6.43899 10.4984 6.16562C10.5143 6.04036 10.5332 5.97762 10.5442 5.94936C10.5468 5.94282 10.5487 5.93852 10.55 5.93601L10.5517 5.93285ZM10.5518 21.9591C9.6 19.5243 9.6 8.08864 10.5547 5.93107L10.5594 5.92864L10.5673 5.92497C10.5941 5.91334 10.6537 5.8935 10.7725 5.87666C11.0319 5.83991 11.3937 5.83784 12 5.83784C12.6063 5.83784 12.9681 5.83991 13.2275 5.87666C13.3463 5.8935 13.4059 5.91334 13.4327 5.92497C13.4389 5.92766 13.4429 5.92976 13.4453 5.93107L13.4483 5.93285L13.45 5.93601C13.4513 5.93852 13.4532 5.94282 13.4558 5.94936C13.4668 5.97762 13.4857 6.04036 13.5016 6.16562C13.5365 6.43899 13.5385 6.82041 13.5385 7.45946V20.4324C13.5385 21.0715 13.5365 21.4529 13.5016 21.7263C13.4857 21.8515 13.4668 21.9143 13.4558 21.9425C13.4532 21.9491 13.4513 21.9534 13.45 21.9559L13.4483 21.959L13.4453 21.9608C13.4438 21.9617 13.4414 21.9629 13.4383 21.9644C13.4366 21.9652 13.4348 21.966 13.4327 21.9669C13.4059 21.9785 13.3463 21.9984 13.2275 22.0152C12.9681 22.052 12.6063 22.054 12 22.054C11.3937 22.054 11.0319 22.052 10.7725 22.0152C10.6537 21.9984 10.5941 21.9785 10.5673 21.9669C10.5611 21.9642 10.5571 21.9621 10.5547 21.9608L10.5518 21.9591Z" fill="#1C274C"/>
<path fill-rule="evenodd" clip-rule="evenodd" d="M3.32955 9.08108C2.79685 9.08101 2.30844 9.08095 1.91114 9.13725C1.47362 9.19926 1.01119 9.34513 0.630855 9.74603C0.250519 10.1469 0.112123 10.6344 0.0533003 11.0955C-0.000116098 11.5143 -5.851e-05 12.0291 4.28573e-06 12.5906V20.4905C-5.851e-05 21.052 -0.000116098 21.5668 0.0533003 21.9856C0.112123 22.4467 0.250519 22.9342 0.630855 23.335C1.01119 23.7359 1.47362 23.8818 1.91114 23.9438C2.30844 24.0001 2.79685 24.0001 3.32955 24H3.43969C3.97239 24.0001 4.4608 24.0001 4.85811 23.9438C5.29562 23.8818 5.75805 23.7359 6.13839 23.335C6.51872 22.9342 6.65712 22.4467 6.71594 21.9856C6.76936 21.5668 6.7693 21.052 6.76924 20.4905V12.5906C6.7693 12.0291 6.76936 11.5143 6.71594 11.0955C6.65712 10.6344 6.51872 10.1469 6.13839 9.74603C5.75805 9.34513 5.29562 9.19926 4.85811 9.13725C4.4608 9.08095 3.97239 9.08101 3.4397 9.08108H3.32955ZM1.93929 11.1203L1.9363 11.122L1.93461 11.1252C1.93336 11.1277 1.93137 11.132 1.92882 11.1385C1.91779 11.1668 1.89897 11.2295 1.88299 11.3548C1.84812 11.6282 1.84616 12.0096 1.84616 12.6486V20.4324C1.84616 21.0715 1.84812 21.4529 1.88299 21.7263C1.89897 21.8515 1.91779 21.9143 1.92882 21.9425C1.93137 21.9491 1.93336 21.9534 1.93461 21.9559L1.9358 21.9582L1.9393 21.9608C1.94167 21.9621 1.94575 21.9642 1.95196 21.9669C1.97877 21.9785 2.03829 21.9984 2.15713 22.0152C2.41648 22.052 2.77834 22.054 3.38462 22.054C3.99091 22.054 4.35276 22.052 4.61211 22.0152C4.73095 21.9984 4.79047 21.9785 4.81728 21.9669C4.82349 21.9642 4.82757 21.9621 4.82995 21.9608L4.83294 21.959L4.83464 21.9559L4.83736 21.95L4.84043 21.9425C4.85145 21.9143 4.87028 21.8515 4.88625 21.7263C4.92112 21.4529 4.92308 21.0715 4.92308 20.4324V12.6486C4.92308 12.0096 4.92112 11.6282 4.88625 11.3548C4.87028 11.2295 4.85145 11.1668 4.84043 11.1385C4.83787 11.132 4.83588 11.1277 4.83464 11.1252L4.83294 11.122L4.82995 11.1203C4.82757 11.1189 4.82349 11.1168 4.81728 11.1142C4.79047 11.1025 4.73095 11.0827 4.61211 11.0658C4.35276 11.0291 3.99091 11.027 3.38462 11.027C2.77834 11.027 2.41648 11.0291 2.15713 11.0658C2.03829 11.0827 1.97877 11.1025 1.95196 11.1142C1.94575 11.1168 1.94167 11.1189 1.93929 11.1203Z" fill="#1C274C"/>
<path d="M10.5547 5.93107C9.6 8.08864 9.6 19.5243 10.5518 21.9591L10.5547 21.9608C10.5571 21.9621 10.5611 21.9642 10.5673 21.9669C10.5941 21.9785 10.6537 21.9984 10.7725 22.0152C11.0319 22.052 11.3937 22.054 12 22.054C12.6063 22.054 12.9681 22.052 13.2275 22.0152C13.3463 21.9984 13.4059 21.9785 13.4327 21.9669L13.4383 21.9644C13.4414 21.9629 13.4438 21.9617 13.4453 21.9608L13.4483 21.959L13.45 21.9559C13.4513 21.9534 13.4532 21.9491 13.4558 21.9425C13.4668 21.9143 13.4857 21.8515 13.5016 21.7263C13.5365 21.4529 13.5385 21.0715 13.5385 20.4324V7.45946C13.5385 6.82041 13.5365 6.43899 13.5016 6.16562C13.4857 6.04036 13.4668 5.97762 13.4558 5.94936C13.4532 5.94282 13.4513 5.93852 13.45 5.93601L13.4483 5.93285L13.4453 5.93107C13.4429 5.92976 13.4389 5.92766 13.4327 5.92497C13.4059 5.91334 13.3463 5.8935 13.2275 5.87666C12.9681 5.83991 12.6063 5.83784 12 5.83784C11.3937 5.83784 11.0319 5.83991 10.7725 5.87666C10.6537 5.8935 10.5941 5.91334 10.5673 5.92497L10.5594 5.92864L10.5547 5.93107Z" fill="#1C274C"/>
<path d="M1.9358 21.9582L1.9393 21.9608C1.94167 21.9621 1.94575 21.9642 1.95196 21.9669C1.97877 21.9785 2.03829 21.9984 2.15713 22.0152C2.41648 22.052 2.77834 22.054 3.38462 22.054C3.99091 22.054 4.35276 22.052 4.61211 22.0152C4.73095 21.9984 4.79047 21.9785 4.81728 21.9669C4.82349 21.9642 4.82757 21.9621 4.82995 21.9608L4.83294 21.959L4.83464 21.9559L4.83736 21.95L4.84043 21.9425C4.85145 21.9143 4.87028 21.8515 4.88625 21.7263C4.92112 21.4529 4.92308 21.0715 4.92308 20.4324V12.6486C4.92308 12.0096 4.92112 11.6282 4.88625 11.3548C4.87028 11.2295 4.85145 11.1668 4.84043 11.1385C4.83787 11.132 4.83588 11.1277 4.83464 11.1252L4.83294 11.122L4.82995 11.1203C4.82757 11.1189 4.82349 11.1168 4.81728 11.1142C4.79047 11.1025 4.73095 11.0827 4.61211 11.0658C4.35276 11.0291 3.99091 11.027 3.38462 11.027C2.77834 11.027 2.41648 11.0291 2.15713 11.0658C2.03829 11.0827 1.97877 11.1025 1.95196 11.1142C1.94575 11.1168 1.94167 11.1189 1.93929 11.1203C0.630855 12.1801 0.8 21.7557 1.9358 21.9582Z" fill="#1C274C"/>
</svg>
