<svg width="24" height="24" viewBox="0 0 24 24" fill="none" xmlns="http://www.w3.org/2000/svg">
<path d="M6.5 2.6084C8.30423 1.50002 10.7566 1.07041 13.1357 1.37793C16.6434 1.83154 20.2155 3.90309 21.7471 8.05957C23.5077 12.8383 23.1378 17.1623 22.3057 19.8018C22.0972 20.463 21.8559 21.0298 21.6045 21.4775C21.3627 21.9082 21.0781 22.289 20.7568 22.5088C20.593 22.6207 20.3641 22.7284 20.0938 22.7158C19.7962 22.7018 19.5595 22.5481 19.4033 22.3467C19.2604 22.162 19.182 21.9386 19.1367 21.7256C19.09 21.5058 19.0693 21.2527 19.0693 20.9727C19.0694 19.8376 18.8256 19.2355 18.4746 18.8535C18.104 18.4503 17.5221 18.1869 16.6035 17.9297C14.8108 17.4277 11.9987 17.0311 8.64844 15.1709C6.35746 13.8987 4.77226 12.2125 4.03516 10.3369C3.29274 8.44735 3.43379 6.41748 4.50195 4.54785L4.50781 4.53711L4.51465 4.52637C4.73861 4.16802 5.00575 3.83869 5.30859 3.53809C6.52779 3.89957 7.52626 4.32996 8.32617 4.77051C9.84683 5.60809 10.6216 6.46138 10.8721 6.91113C11.0398 7.21258 11.4201 7.32179 11.7217 7.1543C12.0232 6.98646 12.1325 6.60529 11.9648 6.30371C11.5624 5.58041 10.5737 4.58181 8.92871 3.67578C8.24252 3.29788 7.43583 2.93355 6.5 2.6084ZM1.69824 1.54199C3.57936 1.76422 5.17049 2.14646 6.5 2.6084C6.06083 2.87819 5.66056 3.18873 5.30859 3.53809C4.23339 3.21929 2.986 2.95372 1.55078 2.78418C1.20833 2.7434 0.964384 2.43244 1.00488 2.08984C1.04541 1.7471 1.35555 1.50162 1.69824 1.54199Z" fill="black"/>
</svg>
